<?xml version="1.0" encoding="iso-8859-1"?>
<!-- Uploaded to: SVG Repo, www.svgrepo.com, Generator: SVG Repo Mixer Tools -->
<!DOCTYPE svg PUBLIC "-//W3C//DTD SVG 1.1//EN" "http://www.w3.org/Graphics/SVG/1.1/DTD/svg11.dtd">
<svg fill="#000000" version="1.1" id="Capa_1" xmlns="http://www.w3.org/2000/svg" xmlns:xlink="http://www.w3.org/1999/xlink" 
	 width="800px" height="800px" viewBox="0 0 449.168 449.168"
	 xml:space="preserve">
<g>
	<g>
		<path d="M429.924,88.906H19.246C8.615,88.906,0,97.523,0,108.152v232.864c0,10.629,8.615,19.246,19.246,19.246h410.678
			c10.629,0,19.244-8.617,19.244-19.246V108.152C449.168,97.523,440.553,88.906,429.924,88.906z M417.414,328.506H31.756V120.662
			h385.658V328.506z"/>
		<path d="M189.711,294.331c12.705,0,24.615-3.397,34.873-9.333c10.26,5.936,22.168,9.333,34.875,9.333
			c38.52,0,69.746-31.228,69.746-69.747c0-38.52-31.228-69.747-69.746-69.747c-12.707,0-24.615,3.398-34.875,9.333
			c-10.258-5.935-22.168-9.333-34.873-9.333c-38.52,0-69.746,31.227-69.746,69.747C119.965,263.104,151.191,294.331,189.711,294.331
			z M243.865,180.633c4.879-1.736,10.125-2.69,15.594-2.69c25.717,0,46.639,20.923,46.639,46.641s-20.922,46.641-46.639,46.641
			c-5.469,0-10.715-0.953-15.594-2.689c9.746-11.996,15.594-27.29,15.594-43.951S253.611,192.628,243.865,180.633z"/>
	</g>
</g>
</svg>