<?xml version="1.0" encoding="iso-8859-1"?>
<!-- Uploaded to: SVG Repo, www.svgrepo.com, Generator: SVG Repo Mixer Tools -->
<!DOCTYPE svg PUBLIC "-//W3C//DTD SVG 1.1//EN" "http://www.w3.org/Graphics/SVG/1.1/DTD/svg11.dtd">
<svg fill="#000000" version="1.1" id="Capa_1" xmlns="http://www.w3.org/2000/svg" xmlns:xlink="http://www.w3.org/1999/xlink" 
	 width="800px" height="800px" viewBox="0 0 410.641 410.641"
	 xml:space="preserve">
<g>
	<g>
		<path d="M113.574,123.494c5.522,0,10-4.477,10-10V10c0-5.523-4.478-10-10-10H10.078c-5.522,0-10,4.477-10,10v103.494
			c0,5.523,4.478,10,10,10H113.574z M20.078,20h83.496v83.494H20.078V20z"/>
		<rect x="40.826" y="40.747" width="42" height="42"/>
		<path d="M400.562,0H297.066c-5.522,0-10,4.477-10,10v103.494c0,5.523,4.478,10,10,10h103.496c5.521,0,10-4.477,10-10V10
			C410.562,4.477,406.085,0,400.562,0z M390.562,103.494h-83.496V20h83.496V103.494z"/>
		<rect x="327.814" y="40.747" width="42" height="42"/>
		<path d="M400.562,287.146H297.066c-5.522,0-10,4.477-10,10v103.494c0,5.521,4.478,10,10,10h103.496c5.521,0,10-4.479,10-10
			V297.146C410.562,291.623,406.085,287.146,400.562,287.146z M390.562,390.641h-83.496v-83.494h83.496V390.641z"/>
		<rect x="327.814" y="327.893" width="42" height="42"/>
		<path d="M62.078,294.186v-44.939h54.5c1.379,0,2.5-1.122,2.5-2.5v-47.439c0-1.378-1.121-2.5-2.5-2.5h-54.5v-44.939
			c0-1.378-1.121-2.5-2.5-2.5h-57c-1.379,0-2.5,1.122-2.5,2.5v47.439c0,1.378,1.121,2.5,2.5,2.5h54.5v42.439h-54.5
			c-1.379,0-2.5,1.121-2.5,2.5v47.439c0,1.377,1.121,2.5,2.5,2.5h57C60.958,296.686,62.078,295.564,62.078,294.186z"/>
		<path d="M148.8,178.143c-1.379,0-2.5,1.122-2.5,2.5v55.232c0,1.378,1.121,2.5,2.5,2.5h55.232c1.379,0,2.5-1.122,2.5-2.5v-55.232
			c0-1.378-1.121-2.5-2.5-2.5H148.8z"/>
		<path d="M187.794,111.334h67.412c1.379,0,2.5-1.122,2.5-2.5V41.422c0-1.378-1.121-2.5-2.5-2.5h-67.412c-1.379,0-2.5,1.122-2.5,2.5
			v67.412C185.294,110.212,186.416,111.334,187.794,111.334z"/>
		<path d="M250.713,145.155v50.638c0,1.378,1.121,2.5,2.5,2.5h50.639c1.379,0,2.5-1.122,2.5-2.5v-50.638c0-1.378-1.121-2.5-2.5-2.5
			h-50.639C251.834,142.655,250.713,143.777,250.713,145.155z"/>
		<path d="M89.812,318.404H54.325c-1.379,0-2.5,1.123-2.5,2.5v32.988H2.578c-1.379,0-2.5,1.121-2.5,2.5v51.746
			c0,1.379,1.121,2.5,2.5,2.5h51.747c1.379,0,2.5-1.121,2.5-2.5v-49.246h32.987c1.379,0,2.5-1.123,2.5-2.5v-35.488
			C92.312,319.527,91.191,318.404,89.812,318.404z"/>
		<path d="M267.083,282.918h-35.487c-1.379,0-2.5,1.122-2.5,2.5v32.986h-30.486v-32.986c0-1.378-1.121-2.5-2.5-2.5h-35.487
			c-1.379,0-2.5,1.122-2.5,2.5v35.486c0,1.379,1.121,2.5,2.5,2.5h32.987v30.488h-49.247c-1.379,0-2.5,1.121-2.5,2.5v51.746
			c0,1.379,1.121,2.5,2.5,2.5h51.747c1.379,0,2.5-1.121,2.5-2.5v-49.246h32.986c1.379,0,2.5-1.123,2.5-2.5v-32.988h32.987
			c1.379,0,2.5-1.121,2.5-2.5v-35.486C269.583,284.04,268.462,282.918,267.083,282.918z"/>
		<path d="M172.461,148.982v-35.487c0-1.378-1.121-2.5-2.5-2.5h-35.487c-1.378,0-2.5,1.122-2.5,2.5v35.487
			c0,1.378,1.122,2.5,2.5,2.5h35.487C171.34,151.482,172.461,150.36,172.461,148.982z"/>
		<path d="M186.787,37.987V2.5c0-1.378-1.121-2.5-2.5-2.5H148.8c-1.379,0-2.5,1.122-2.5,2.5v35.487c0,1.378,1.121,2.5,2.5,2.5
			h35.486C185.667,40.487,186.787,39.366,186.787,37.987z"/>
		<path d="M408.062,184.063c1.379,0,2.5-1.122,2.5-2.5v-35.487c0-1.378-1.121-2.5-2.5-2.5h-35.487c-1.379,0-2.5,1.122-2.5,2.5
			v32.987h-32.987c-1.379,0-2.5,1.122-2.5,2.5v35.487c0,1.378,1.121,2.5,2.5,2.5h32.987v32.987c0,1.377,1.121,2.5,2.5,2.5h35.487
			c1.379,0,2.5-1.123,2.5-2.5V217.05c0-1.378-1.121-2.5-2.5-2.5h-32.987v-30.487H408.062L408.062,184.063z"/>
	</g>
</g>
</svg>